<svg width="100%" height="100%" viewBox="0 0 284 284" fill="none" xmlns="http://www.w3.org/2000/svg">
<rect x="1" y="1" width="282" height="282" fill="#FF9B04" stroke="#87441F" stroke-width="2"/>
<rect x="29" y="29" width="226" height="226" fill="white"/>
<path d="M160.518 11.4546C160.518 11.4546 178.435 28.3373 240.488 11.4546C261.463 4.62105 271.077 14.2683 246.169 16.2782" stroke="#87441F" stroke-linecap="round"/>
<path d="M123.381 11.4571C123.381 11.4571 105.482 28.3229 43.4917 11.4571C22.5372 4.63049 12.933 14.2681 37.8166 16.2759" stroke="#87441F" stroke-linecap="round"/>
<mask id="path-5-outside-1_94_29" maskUnits="userSpaceOnUse" x="136.092" y="4" width="12" height="17" fill="black">
<rect fill="white" x="136.092" y="4" width="12" height="17"/>
<path d="M146.691 11.328C146.982 11.6084 147.128 18.8993 141.886 19.7406C136.645 18.8993 136.934 11.6084 137.226 11.328C138.245 11.4215 140.37 12.0571 140.72 13.8518C140.505 11.7352 140.459 7.26293 141.958 6.05457C143.457 7.26293 143.412 11.7352 143.197 13.8518C143.546 12.0571 145.672 11.4215 146.691 11.328Z"/>
</mask>
<path d="M141.958 6.05457L141.644 6.44385L141.958 6.69677L142.272 6.44385L141.958 6.05457ZM142.32 6.40705C142.545 6.24668 142.598 5.93444 142.437 5.70963C142.277 5.48483 141.965 5.43259 141.74 5.59295L142.32 6.40705ZM142.272 5.66528C142.241 5.64028 142.209 5.61615 142.177 5.59295L141.596 6.40705C141.612 6.41858 141.628 6.43084 141.644 6.44385L142.272 5.66528ZM142.272 6.44385C142.288 6.43083 142.304 6.41858 142.32 6.40705L141.74 5.59295C141.707 5.61616 141.675 5.64029 141.644 5.66528L142.272 6.44385ZM141.886 19.7406L141.728 20.728L141.886 20.7534L142.045 20.728L141.886 19.7406ZM146.691 11.328L147.385 10.6077L147.055 10.2904L146.6 10.3322L146.691 11.328ZM143.197 13.8518L142.202 13.7507L144.178 14.0429L143.197 13.8518ZM141.958 6.05457L142.586 5.276L141.958 4.77015L141.331 5.276L141.958 6.05457ZM137.226 11.328L137.317 10.3322L136.861 10.2904L136.532 10.6077L137.226 11.328ZM140.72 13.8518L139.738 14.0429L141.715 13.7507L140.72 13.8518ZM142.045 20.728C145.216 20.219 146.69 17.7387 147.322 15.6084C147.641 14.5322 147.77 13.4831 147.799 12.6795C147.814 12.2779 147.805 11.9217 147.779 11.6411C147.765 11.5033 147.746 11.3634 147.717 11.2365C147.703 11.1742 147.682 11.0936 147.648 11.009C147.626 10.9515 147.553 10.7701 147.385 10.6077L145.997 12.0483C145.847 11.9034 145.792 11.7532 145.787 11.7399C145.771 11.6993 145.766 11.6757 145.768 11.6824C145.77 11.6935 145.779 11.7398 145.788 11.8299C145.804 12.0049 145.813 12.271 145.801 12.6054C145.776 13.274 145.668 14.1528 145.405 15.0396C144.872 16.8352 143.798 18.421 141.728 18.7532L142.045 20.728ZM146.6 10.3322C145.978 10.3892 145.05 10.6036 144.203 11.0802C143.348 11.5605 142.465 12.3759 142.215 13.6607L144.178 14.0429C144.278 13.533 144.632 13.1332 145.183 12.8236C145.74 12.5104 146.384 12.3603 146.782 12.3238L146.6 10.3322ZM144.192 13.9528C144.304 12.8471 144.373 11.1314 144.216 9.51582C144.137 8.70876 143.999 7.89156 143.765 7.17463C143.538 6.47838 143.181 5.75612 142.586 5.276L141.331 6.83313C141.485 6.9572 141.685 7.2471 141.864 7.79539C142.036 8.323 142.154 8.98272 142.225 9.70934C142.366 11.1611 142.305 12.7398 142.202 13.7507L144.192 13.9528ZM142.045 18.7532C139.983 18.4223 138.943 16.8472 138.445 15.0558C138.198 14.1706 138.106 13.2926 138.094 12.6237C138.088 12.2893 138.101 12.0227 138.121 11.8469C138.131 11.7565 138.141 11.7091 138.144 11.6964C138.146 11.689 138.141 11.7111 138.125 11.7498C138.121 11.7616 138.066 11.907 137.919 12.0483L136.532 10.6077C136.367 10.7665 136.294 10.9431 136.272 10.9991C136.238 11.0818 136.216 11.1608 136.201 11.2224C136.17 11.3478 136.149 11.4866 136.134 11.6241C136.102 11.9039 136.087 12.2596 136.094 12.6612C136.109 13.4646 136.218 14.5144 136.518 15.5922C137.112 17.7267 138.548 20.2176 141.728 20.728L142.045 18.7532ZM137.134 12.3238C137.532 12.3603 138.177 12.5104 138.734 12.8236C139.285 13.1332 139.639 13.533 139.738 14.0429L141.701 13.6607C141.451 12.3759 140.568 11.5605 139.714 11.0802C138.866 10.6036 137.938 10.3892 137.317 10.3322L137.134 12.3238ZM141.715 13.7507C141.612 12.7398 141.55 11.1611 141.692 9.70934C141.762 8.98272 141.88 8.323 142.053 7.79539C142.232 7.2471 142.432 6.9572 142.586 6.83313L141.331 5.276C140.735 5.75612 140.379 6.47838 140.151 7.17463C139.917 7.89156 139.779 8.70876 139.701 9.51582C139.544 11.1314 139.613 12.8471 139.725 13.9528L141.715 13.7507Z" fill="#87441F" mask="url(#path-5-outside-1_94_29)"/>
<path d="M129.938 16.379C132.209 21.6358 135.154 20.0521 135.757 18.648" stroke="#87441F" stroke-linecap="round"/>
<path d="M129.945 16.3793C133.048 15.5657 136.09 16.9929 135.792 18.5002" stroke="#87441F" stroke-linecap="round"/>
<path d="M153.96 16.5467C151.69 21.8035 148.745 20.2198 148.141 18.8157" stroke="#87441F" stroke-linecap="round"/>
<path d="M153.954 16.547C150.851 15.7334 147.809 17.1606 148.107 18.6679" stroke="#87441F" stroke-linecap="round"/>
<path d="M272.545 160.518C272.545 160.518 255.663 178.435 272.545 240.488C279.379 261.463 269.732 271.077 267.722 246.169" stroke="#87441F" stroke-linecap="round"/>
<path d="M272.543 123.381C272.543 123.381 255.677 105.482 272.543 43.4917C279.369 22.5372 269.732 12.933 267.724 37.8166" stroke="#87441F" stroke-linecap="round"/>
<mask id="path-13-outside-2_94_29" maskUnits="userSpaceOnUse" x="263" y="136.092" width="17" height="12" fill="black">
<rect fill="white" x="263" y="136.092" width="17" height="12"/>
<path d="M272.672 146.691C272.392 146.982 265.101 147.128 264.259 141.886C265.101 136.645 272.392 136.934 272.672 137.226C272.579 138.245 271.943 140.37 270.148 140.72C272.265 140.505 276.737 140.459 277.945 141.958C276.737 143.457 272.265 143.412 270.148 143.197C271.943 143.546 272.579 145.672 272.672 146.691Z"/>
</mask>
<path d="M277.945 141.958L277.556 141.644L277.303 141.958L277.556 142.272L277.945 141.958ZM277.593 142.321C277.753 142.545 278.066 142.598 278.29 142.437C278.515 142.277 278.567 141.965 278.407 141.74L277.593 142.321ZM278.335 142.272C278.36 142.241 278.384 142.209 278.407 142.177L277.593 141.596C277.581 141.612 277.569 141.628 277.556 141.644L278.335 142.272ZM277.556 142.272C277.569 142.288 277.581 142.304 277.593 142.321L278.407 141.74C278.384 141.707 278.36 141.675 278.335 141.644L277.556 142.272ZM264.259 141.886L263.272 141.728L263.247 141.886L263.272 142.045L264.259 141.886ZM272.672 146.691L273.392 147.385L273.71 147.055L273.668 146.6L272.672 146.691ZM270.148 143.197L270.249 142.202L269.957 144.178L270.148 143.197ZM277.945 141.958L278.724 142.586L279.23 141.958L278.724 141.331L277.945 141.958ZM272.672 137.226L273.668 137.317L273.71 136.861L273.392 136.532L272.672 137.226ZM270.148 140.72L269.957 139.738L270.249 141.715L270.148 140.72ZM263.272 142.045C263.781 145.216 266.261 146.69 268.392 147.322C269.468 147.641 270.517 147.77 271.32 147.799C271.722 147.814 272.078 147.805 272.359 147.779C272.497 147.766 272.637 147.746 272.763 147.717C272.826 147.703 272.906 147.682 272.991 147.648C273.048 147.626 273.23 147.553 273.392 147.385L271.952 145.997C272.097 145.847 272.247 145.792 272.26 145.787C272.301 145.771 272.324 145.766 272.318 145.768C272.306 145.77 272.26 145.779 272.17 145.788C271.995 145.804 271.729 145.813 271.395 145.801C270.726 145.776 269.847 145.668 268.96 145.405C267.165 144.872 265.579 143.798 265.247 141.728L263.272 142.045ZM273.668 146.6C273.611 145.978 273.396 145.05 272.92 144.203C272.44 143.348 271.624 142.465 270.339 142.215L269.957 144.178C270.467 144.278 270.867 144.632 271.176 145.183C271.49 145.74 271.64 146.384 271.676 146.782L273.668 146.6ZM270.047 144.192C271.153 144.304 272.869 144.373 274.484 144.216C275.291 144.137 276.108 143.999 276.825 143.765C277.522 143.538 278.244 143.181 278.724 142.586L277.167 141.331C277.043 141.485 276.753 141.685 276.205 141.864C275.677 142.036 275.017 142.154 274.291 142.225C272.839 142.366 271.26 142.305 270.249 142.202L270.047 144.192ZM265.247 142.045C265.578 139.983 267.153 138.943 268.944 138.445C269.829 138.198 270.707 138.106 271.376 138.094C271.711 138.088 271.977 138.101 272.153 138.121C272.244 138.131 272.291 138.141 272.304 138.144C272.311 138.146 272.289 138.141 272.25 138.125C272.238 138.121 272.093 138.066 271.952 137.919L273.392 136.532C273.234 136.367 273.057 136.294 273.001 136.272C272.918 136.238 272.839 136.216 272.778 136.201C272.652 136.17 272.513 136.149 272.376 136.134C272.096 136.102 271.74 136.087 271.339 136.094C270.535 136.109 269.486 136.218 268.408 136.518C266.273 137.112 263.782 138.548 263.272 141.728L265.247 142.045ZM271.676 137.134C271.64 137.532 271.49 138.177 271.176 138.734C270.867 139.285 270.467 139.639 269.957 139.738L270.339 141.701C271.624 141.451 272.44 140.568 272.92 139.714C273.396 138.866 273.611 137.938 273.668 137.317L271.676 137.134ZM270.249 141.715C271.26 141.612 272.839 141.55 274.291 141.692C275.017 141.762 275.677 141.88 276.205 142.053C276.753 142.232 277.043 142.432 277.167 142.586L278.724 141.331C278.244 140.735 277.522 140.379 276.825 140.151C276.108 139.917 275.291 139.779 274.484 139.701C272.869 139.544 271.153 139.613 270.047 139.725L270.249 141.715Z" fill="#87441F" mask="url(#path-13-outside-2_94_29)"/>
<path d="M267.621 129.938C262.364 132.209 263.948 135.154 265.352 135.757" stroke="#87441F" stroke-linecap="round"/>
<path d="M267.621 129.945C268.434 133.048 267.007 136.09 265.5 135.792" stroke="#87441F" stroke-linecap="round"/>
<path d="M267.453 153.96C262.196 151.69 263.78 148.745 265.184 148.141" stroke="#87441F" stroke-linecap="round"/>
<path d="M267.453 153.954C268.267 150.851 266.839 147.809 265.332 148.107" stroke="#87441F" stroke-linecap="round"/>
<path d="M12.4545 160.518C12.4545 160.518 29.3373 178.435 12.4545 240.488C5.62104 261.463 15.2683 271.077 17.2782 246.169" stroke="#87441F" stroke-linecap="round"/>
<path d="M12.4571 123.381C12.4571 123.381 29.3229 105.482 12.4571 43.4917C5.6305 22.5372 15.2681 12.933 17.2759 37.8166" stroke="#87441F" stroke-linecap="round"/>
<mask id="path-21-outside-3_94_29" maskUnits="userSpaceOnUse" x="5" y="136.092" width="17" height="12" fill="black">
<rect fill="white" x="5" y="136.092" width="17" height="12"/>
<path d="M12.328 146.691C12.6084 146.982 19.8993 147.128 20.7406 141.886C19.8993 136.645 12.6084 136.934 12.328 137.226C12.4215 138.245 13.0571 140.37 14.8518 140.72C12.7352 140.505 8.26293 140.459 7.05457 141.958C8.26293 143.457 12.7352 143.412 14.8518 143.197C13.0571 143.546 12.4215 145.672 12.328 146.691Z"/>
</mask>
<path d="M7.05457 141.958L7.44385 141.644L7.69677 141.958L7.44385 142.272L7.05457 141.958ZM7.40705 142.321C7.24668 142.545 6.93444 142.598 6.70963 142.437C6.48483 142.277 6.43259 141.965 6.59295 141.74L7.40705 142.321ZM6.66528 142.272C6.64028 142.241 6.61615 142.209 6.59295 142.177L7.40705 141.596C7.41858 141.612 7.43084 141.628 7.44385 141.644L6.66528 142.272ZM7.44385 142.272C7.43083 142.288 7.41857 142.304 7.40705 142.321L6.59295 141.74C6.61616 141.707 6.64029 141.675 6.66528 141.644L7.44385 142.272ZM20.7406 141.886L21.728 141.728L21.7534 141.886L21.728 142.045L20.7406 141.886ZM12.328 146.691L11.6077 147.385L11.2904 147.055L11.3322 146.6L12.328 146.691ZM14.8518 143.197L14.7507 142.202L15.0429 144.178L14.8518 143.197ZM7.05457 141.958L6.276 142.586L5.77015 141.958L6.276 141.331L7.05457 141.958ZM12.328 137.226L11.3322 137.317L11.2904 136.861L11.6077 136.532L12.328 137.226ZM14.8518 140.72L15.0429 139.738L14.7507 141.715L14.8518 140.72ZM21.728 142.045C21.219 145.216 18.7387 146.69 16.6084 147.322C15.5322 147.641 14.4831 147.77 13.6795 147.799C13.2779 147.814 12.9217 147.805 12.6411 147.779C12.5033 147.766 12.3634 147.746 12.2365 147.717C12.1742 147.703 12.0936 147.682 12.009 147.648C11.9515 147.626 11.7701 147.553 11.6077 147.385L13.0483 145.997C12.9034 145.847 12.7532 145.792 12.7399 145.787C12.6993 145.771 12.6757 145.766 12.6824 145.768C12.6935 145.77 12.7398 145.779 12.8299 145.788C13.0049 145.804 13.271 145.813 13.6054 145.801C14.274 145.776 15.1528 145.668 16.0396 145.405C17.8352 144.872 19.421 143.798 19.7532 141.728L21.728 142.045ZM11.3322 146.6C11.3892 145.978 11.6036 145.05 12.0802 144.203C12.5605 143.348 13.3759 142.465 14.6607 142.215L15.0429 144.178C14.533 144.278 14.1332 144.632 13.8236 145.183C13.5104 145.74 13.3603 146.384 13.3238 146.782L11.3322 146.6ZM14.9528 144.192C13.8471 144.304 12.1314 144.373 10.5158 144.216C9.70876 144.137 8.89156 143.999 8.17463 143.765C7.47838 143.538 6.75612 143.181 6.276 142.586L7.83313 141.331C7.9572 141.485 8.2471 141.685 8.79539 141.864C9.323 142.036 9.98272 142.154 10.7093 142.225C12.1611 142.366 13.7398 142.305 14.7507 142.202L14.9528 144.192ZM19.7532 142.045C19.4223 139.983 17.8472 138.943 16.0558 138.445C15.1706 138.198 14.2926 138.106 13.6237 138.094C13.2893 138.088 13.0227 138.101 12.8469 138.121C12.7565 138.131 12.7091 138.141 12.6964 138.144C12.689 138.146 12.7111 138.141 12.7498 138.125C12.7616 138.121 12.907 138.066 13.0483 137.919L11.6077 136.532C11.7665 136.367 11.9431 136.294 11.9991 136.272C12.0818 136.238 12.1608 136.216 12.2224 136.201C12.3478 136.17 12.4866 136.149 12.6241 136.134C12.9039 136.102 13.2596 136.087 13.6612 136.094C14.4646 136.109 15.5144 136.218 16.5922 136.518C18.7267 137.112 21.2176 138.548 21.728 141.728L19.7532 142.045ZM13.3238 137.134C13.3603 137.532 13.5104 138.177 13.8236 138.734C14.1332 139.285 14.533 139.639 15.0429 139.738L14.6607 141.701C13.3759 141.451 12.5605 140.568 12.0802 139.714C11.6036 138.866 11.3892 137.938 11.3322 137.317L13.3238 137.134ZM14.7507 141.715C13.7398 141.612 12.1611 141.55 10.7093 141.692C9.98272 141.762 9.323 141.88 8.79539 142.053C8.2471 142.232 7.9572 142.432 7.83313 142.586L6.276 141.331C6.75611 140.735 7.47838 140.379 8.17463 140.151C8.89156 139.917 9.70876 139.779 10.5158 139.701C12.1314 139.544 13.8471 139.613 14.9528 139.725L14.7507 141.715Z" fill="#87441F" mask="url(#path-21-outside-3_94_29)"/>
<path d="M17.379 129.938C22.6358 132.209 21.0521 135.154 19.648 135.757" stroke="#87441F" stroke-linecap="round"/>
<path d="M17.3793 129.945C16.5657 133.048 17.9929 136.09 19.5002 135.792" stroke="#87441F" stroke-linecap="round"/>
<path d="M17.5467 153.96C22.8035 151.69 21.2198 148.745 19.8157 148.141" stroke="#87441F" stroke-linecap="round"/>
<path d="M17.547 153.954C16.7334 150.851 18.1606 147.809 19.668 148.107" stroke="#87441F" stroke-linecap="round"/>
<path d="M160.518 271.545C160.518 271.545 178.435 254.663 240.488 271.545C261.463 278.379 271.077 268.732 246.169 266.722" stroke="#87441F" stroke-linecap="round"/>
<path d="M123.381 271.543C123.381 271.543 105.482 254.677 43.4917 271.543C22.5372 278.369 12.933 268.732 37.8166 266.724" stroke="#87441F" stroke-linecap="round"/>
<mask id="path-29-outside-4_94_29" maskUnits="userSpaceOnUse" x="136.092" y="262" width="12" height="17" fill="black">
<rect fill="white" x="136.092" y="262" width="12" height="17"/>
<path d="M146.691 271.672C146.982 271.392 147.128 264.101 141.886 263.259C136.645 264.101 136.934 271.392 137.226 271.672C138.245 271.579 140.37 270.943 140.72 269.148C140.505 271.265 140.459 275.737 141.958 276.945C143.457 275.737 143.412 271.265 143.197 269.148C143.546 270.943 145.672 271.579 146.691 271.672Z"/>
</mask>
<path d="M141.958 276.945L141.644 276.556L141.958 276.303L142.272 276.556L141.958 276.945ZM142.32 276.593C142.545 276.753 142.598 277.066 142.437 277.29C142.277 277.515 141.965 277.567 141.74 277.407L142.32 276.593ZM142.272 277.335C142.241 277.36 142.209 277.384 142.177 277.407L141.596 276.593C141.612 276.581 141.628 276.569 141.644 276.556L142.272 277.335ZM142.272 276.556C142.288 276.569 142.304 276.581 142.32 276.593L141.74 277.407C141.707 277.384 141.675 277.36 141.644 277.335L142.272 276.556ZM141.886 263.259L141.728 262.272L141.886 262.247L142.045 262.272L141.886 263.259ZM146.691 271.672L147.385 272.392L147.055 272.71L146.6 272.668L146.691 271.672ZM143.197 269.148L142.202 269.249L144.178 268.957L143.197 269.148ZM141.958 276.945L142.586 277.724L141.958 278.23L141.331 277.724L141.958 276.945ZM137.226 271.672L137.317 272.668L136.861 272.71L136.532 272.392L137.226 271.672ZM140.72 269.148L139.738 268.957L141.715 269.249L140.72 269.148ZM142.045 262.272C145.216 262.781 146.69 265.261 147.322 267.392C147.641 268.468 147.77 269.517 147.799 270.32C147.814 270.722 147.805 271.078 147.779 271.359C147.765 271.497 147.746 271.637 147.717 271.763C147.703 271.826 147.682 271.906 147.648 271.991C147.626 272.048 147.553 272.23 147.385 272.392L145.997 270.952C145.847 271.097 145.792 271.247 145.787 271.26C145.771 271.301 145.766 271.324 145.768 271.318C145.77 271.306 145.779 271.26 145.788 271.17C145.804 270.995 145.813 270.729 145.801 270.395C145.776 269.726 145.668 268.847 145.405 267.96C144.872 266.165 143.798 264.579 141.728 264.247L142.045 262.272ZM146.6 272.668C145.978 272.611 145.05 272.396 144.203 271.92C143.348 271.44 142.465 270.624 142.215 269.339L144.178 268.957C144.278 269.467 144.632 269.867 145.183 270.176C145.74 270.49 146.384 270.64 146.782 270.676L146.6 272.668ZM144.192 269.047C144.304 270.153 144.373 271.869 144.216 273.484C144.137 274.291 143.999 275.108 143.765 275.825C143.538 276.522 143.181 277.244 142.586 277.724L141.331 276.167C141.485 276.043 141.685 275.753 141.864 275.205C142.036 274.677 142.154 274.017 142.225 273.291C142.366 271.839 142.305 270.26 142.202 269.249L144.192 269.047ZM142.045 264.247C139.983 264.578 138.943 266.153 138.445 267.944C138.198 268.829 138.106 269.707 138.094 270.376C138.088 270.711 138.101 270.977 138.121 271.153C138.131 271.244 138.141 271.291 138.144 271.304C138.146 271.311 138.141 271.289 138.125 271.25C138.121 271.238 138.066 271.093 137.919 270.952L136.532 272.392C136.367 272.234 136.294 272.057 136.272 272.001C136.238 271.918 136.216 271.839 136.201 271.778C136.17 271.652 136.149 271.513 136.134 271.376C136.102 271.096 136.087 270.74 136.094 270.339C136.109 269.535 136.218 268.486 136.518 267.408C137.112 265.273 138.548 262.782 141.728 262.272L142.045 264.247ZM137.134 270.676C137.532 270.64 138.177 270.49 138.734 270.176C139.285 269.867 139.639 269.467 139.738 268.957L141.701 269.339C141.451 270.624 140.568 271.44 139.714 271.92C138.866 272.396 137.938 272.611 137.317 272.668L137.134 270.676ZM141.715 269.249C141.612 270.26 141.55 271.839 141.692 273.291C141.762 274.017 141.88 274.677 142.053 275.205C142.232 275.753 142.432 276.043 142.586 276.167L141.331 277.724C140.735 277.244 140.379 276.522 140.151 275.825C139.917 275.108 139.779 274.291 139.701 273.484C139.544 271.869 139.613 270.153 139.725 269.047L141.715 269.249Z" fill="#87441F" mask="url(#path-29-outside-4_94_29)"/>
<path d="M129.938 266.621C132.209 261.364 135.154 262.948 135.757 264.352" stroke="#87441F" stroke-linecap="round"/>
<path d="M129.945 266.621C133.048 267.434 136.09 266.007 135.792 264.5" stroke="#87441F" stroke-linecap="round"/>
<path d="M153.96 266.453C151.69 261.196 148.745 262.78 148.141 264.184" stroke="#87441F" stroke-linecap="round"/>
<path d="M153.954 266.453C150.851 267.267 147.809 265.839 148.107 264.332" stroke="#87441F" stroke-linecap="round"/>
</svg>
